HIERARCHY
ROOT Hips
{
	OFFSET 0.000000 0.000000 0.000000
	CHANNELS 6 Xposition Yposition Zposition Zrotation Yrotation Xrotation 
	JOINT LeftUpLeg_virtual
	{
		OFFSET 0.000000 0.000000 0.000000
		CHANNELS 3 Zrotation Yrotation Xrotation
		JOINT LeftUpLeg
		{
			OFFSET 8.479694 -4.795517 -0.379053
			CHANNELS 3 Zrotation Yrotation Xrotation
			JOINT LeftLeg
			{
				OFFSET 0.485052 -32.551468 0.112863
				CHANNELS 3 Zrotation Yrotation Xrotation
				JOINT LeftFoot
				{
					OFFSET 0.438033 -32.635670 -3.012641
					CHANNELS 3 Zrotation Yrotation Xrotation
					JOINT LeftToeBase
					{
						OFFSET 0.970169 -13.225353 11.864223
						CHANNELS 3 Zrotation Yrotation Xrotation
						End Site
						{
							OFFSET 0.000000 0.000000 0.000000
						}
					}
				}
			}
		}
	}
	JOINT RightUpLeg_virtual
	{
		OFFSET 0.000000 0.000000 0.000000
		CHANNELS 3 Zrotation Yrotation Xrotation
		JOINT RightUpLeg
		{
			OFFSET -8.479694 -4.795517 -0.379053
			CHANNELS 3 Zrotation Yrotation Xrotation
			JOINT RightLeg
			{
				OFFSET -0.484100 -32.551483 0.112903
				CHANNELS 3 Zrotation Yrotation Xrotation
				JOINT RightFoot
				{
					OFFSET -0.438985 -32.635651 -3.012681
					CHANNELS 3 Zrotation Yrotation Xrotation
					JOINT RightToeBase
					{
						OFFSET -0.970169 -13.225354 11.864223
						CHANNELS 3 Zrotation Yrotation Xrotation
						End Site
						{
							OFFSET 0.000000 0.000000 0.000000
						}
					}
				}
			}
		}
	}
	JOINT Spine_virtual
	{
		OFFSET 0.000000 0.000000 0.000000
		CHANNELS 3 Zrotation Yrotation Xrotation
		JOINT Spine
		{
			OFFSET 0.000000 7.722015 1.166203
			CHANNELS 3 Zrotation Yrotation Xrotation
			JOINT Spine1
			{
				OFFSET 0.000000 12.024086 0.248766
				CHANNELS 3 Zrotation Yrotation Xrotation
				JOINT Spine2
				{
					OFFSET -0.000000 11.503036 -0.491240
					CHANNELS 3 Zrotation Yrotation Xrotation
					JOINT Neck_virtual
					{
						OFFSET 0.000000 0.000000 0.000000
						CHANNELS 3 Zrotation Yrotation Xrotation
						JOINT Neck
						{
							OFFSET 0.000000 18.430687 -3.123054
							CHANNELS 3 Zrotation Yrotation Xrotation
							JOINT Head
							{
								OFFSET -0.000000 9.051071 1.034021
								CHANNELS 3 Zrotation Yrotation Xrotation
								End Site
								{
									OFFSET 0.000000 0.000000 0.000000
								}
							}
						}
					}
					JOINT LeftShoulder_virtual
					{
						OFFSET 0.000000 0.000000 0.000000
						CHANNELS 3 Zrotation Yrotation Xrotation
						JOINT LeftShoulder
						{
							OFFSET 6.197824 13.665230 -4.064723
							CHANNELS 3 Zrotation Yrotation Xrotation
							JOINT LeftArm
							{
								OFFSET 7.778132 -0.187073 -1.709282
								CHANNELS 3 Zrotation Yrotation Xrotation
								JOINT LeftForeArm
								{
									OFFSET 21.954697 0.000000 -2.041093
									CHANNELS 3 Zrotation Yrotation Xrotation
									JOINT LeftHand
									{
										OFFSET 22.992908 0.000000 -0.870901
										CHANNELS 3 Zrotation Yrotation Xrotation
										End Site
										{
											OFFSET 0.000000 0.000000 0.000000
										}
									}
								}
							}
						}
					}
					JOINT RightShoulder_virtual
					{
						OFFSET 0.000000 0.000000 0.000000
						CHANNELS 3 Zrotation Yrotation Xrotation
						JOINT RightShoulder
						{
							OFFSET -6.197824 13.665230 -4.064723
							CHANNELS 3 Zrotation Yrotation Xrotation
							JOINT RightArm
							{
								OFFSET -7.778132 -0.187073 -1.709282
								CHANNELS 3 Zrotation Yrotation Xrotation
								JOINT RightForeArm
								{
									OFFSET -21.954697 0.000000 -2.041093
									CHANNELS 3 Zrotation Yrotation Xrotation
									JOINT RightHand
									{
										OFFSET -22.992908 0.000000 -0.870901
										CHANNELS 3 Zrotation Yrotation Xrotation
										End Site
										{
											OFFSET 0.000000 0.000000 0.000000
										}
									}
								}
							}
						}
					}
				}
			}
		}
	}
}
MOTION
Frames: 11
Frame Time: 0.033333
-7.669065 62.997013 -21.608850 -179.946251 3.953979 179.904369 -0.206946 -5.992115 -10.690148 4.115614 5.339931 -71.210876 7.489830 -3.214189 104.893599 -3.950613 -11.767668 -6.200755 0.000000 0.000000 0.000000 0.041116 -2.673096 -10.992792 2.005788 -4.319520 -62.035261 -0.746238 2.053637 75.429385 5.128504 6.894597 -2.886646 0.000000 0.000000 0.000000 -2.630382 -1.126852 -16.346145 2.061730 1.117042 3.770266 -2.198972 -1.896498 15.290140 0.010496 0.039295 0.014169 -2.319773 -1.750879 17.641962 -2.219845 3.273324 3.621737 0.000000 0.000000 0.000000 -0.468584 -1.586381 13.612627 -0.022970 -4.430348 6.433494 -55.107920 -21.341285 9.604878 -138.135385 -84.212196 160.637716 0.000000 0.000000 0.000000 -4.314585 0.300435 12.991260 24.548514 13.349192 5.477303 55.998819 16.811937 1.855228 -161.405034 73.913698 -170.325616 0.000000 0.000000 0.000000 
-7.519745 62.887768 -21.422615 -179.960212 3.693080 179.882416 -0.115616 -5.926731 -11.342508 3.710967 5.685788 -71.530488 7.697396 -3.308649 106.850550 -4.260263 -12.114581 -6.608739 0.000000 0.000000 0.000000 -0.062867 -2.650185 -11.641916 1.810982 -4.118206 -61.327428 -0.677817 2.201339 74.741162 5.059889 7.053833 -2.889997 0.000000 0.000000 0.000000 -2.625815 -1.236258 -17.019570 2.152843 1.081993 3.992605 -2.289358 -1.929207 15.583281 0.008804 0.034805 0.010935 -2.429079 -1.810686 17.961632 -2.246219 3.301832 3.927663 0.000000 0.000000 0.000000 -0.569879 -1.641472 13.888620 0.057835 -4.492190 6.397099 -54.999569 -21.336715 7.644580 -137.494181 -84.012570 159.769681 0.000000 0.000000 0.000000 -4.406342 0.240491 13.224367 25.139642 13.169659 5.268588 56.128012 17.735957 2.015866 -162.137708 73.363198 -170.954444 0.000000 0.000000 0.000000 
-7.374525 62.824917 -21.216425 -179.962671 3.396756 179.972739 -0.047336 -5.822854 -11.902811 3.356570 6.035732 -71.719281 7.879703 -3.348573 108.267487 -4.558856 -12.503591 -7.245464 0.000000 0.000000 0.000000 -0.187074 -2.507763 -12.208973 1.656782 -4.029751 -60.906074 -0.600999 2.290693 74.462688 4.837294 7.120126 -2.969163 0.000000 0.000000 0.000000 -2.713876 -1.252037 -17.431999 2.218057 1.016065 4.082888 -2.349454 -2.004011 15.789466 -0.008940 -0.007693 0.013082 -2.501972 -1.845300 18.229363 -2.320854 3.308344 4.203141 0.000000 0.000000 0.000000 -0.599579 -1.651625 14.087795 0.079186 -4.445079 6.235819 -55.177492 -21.128178 5.957136 -137.937487 -83.922295 159.962989 0.000000 0.000000 0.000000 -4.444276 0.314131 13.431993 25.630524 13.073480 5.020071 56.390349 18.598583 2.278819 -162.949421 73.010979 -171.656396 0.000000 0.000000 0.000000 
-7.245147 62.814484 -21.022470 -179.938506 3.166972 -179.976455 -0.007018 -5.608428 -12.266531 2.904445 6.252467 -71.769251 8.034927 -3.357355 109.239915 -4.710134 -13.062898 -8.119184 0.000000 0.000000 0.000000 -0.227743 -2.218350 -12.434767 1.632751 -4.171845 -60.750947 -0.511527 2.306128 74.368261 4.512582 7.064705 -2.884912 0.000000 0.000000 0.000000 -2.799864 -1.114652 -17.526610 2.289534 0.992772 4.100448 -2.259900 -2.034505 15.904176 -0.015747 -0.016766 -0.009193 -2.523576 -1.894087 18.357740 -2.355355 3.234290 4.400419 0.000000 0.000000 0.000000 -0.600751 -1.699940 14.248784 0.067718 -4.452315 6.134669 -55.582867 -20.868888 4.585601 -138.629016 -83.914304 160.409588 0.000000 0.000000 0.000000 -4.438437 0.143387 13.619734 25.982586 13.135289 4.982015 56.581246 19.490630 2.765182 -163.019485 72.818921 -171.626125 0.000000 0.000000 0.000000 
-7.165511 62.864872 -20.877592 -179.925884 3.018004 -179.935282 -0.056966 -5.431299 -12.456198 2.424487 6.315992 -71.797343 8.084301 -3.286668 109.981052 -4.889526 -13.510339 -9.200753 0.000000 0.000000 0.000000 -0.213922 -2.112527 -12.679077 1.593585 -4.266685 -60.512361 -0.396888 2.263724 74.191605 4.274024 7.043896 -2.664121 0.000000 0.000000 0.000000 -2.882451 -1.085625 -17.394359 2.388928 0.927857 4.057678 -2.269433 -2.056170 15.958139 0.005470 0.001911 -0.015223 -2.482135 -1.857382 18.410954 -2.404110 3.176619 4.543926 0.000000 0.000000 0.000000 -0.565867 -1.700154 14.330715 0.004804 -4.405408 6.006549 -56.238569 -20.619872 3.658806 -138.767150 -83.921844 160.292300 0.000000 0.000000 0.000000 -4.394844 0.223642 13.687225 26.183925 13.045305 4.922308 56.732046 20.039142 3.296449 -163.185268 72.823996 -171.664183 0.000000 0.000000 0.000000 
-7.144801 62.991581 -20.819010 179.823813 2.960735 -179.937550 -0.348798 -5.454435 -12.383872 1.743443 6.235416 -71.785384 8.101968 -3.199166 110.765260 -4.847523 -14.121793 -10.411628 0.000000 0.000000 0.000000 -0.221492 -2.207658 -12.659181 1.589335 -4.597081 -60.489808 -0.218519 2.360367 73.959310 4.157797 7.084114 -2.354256 0.000000 0.000000 0.000000 -3.030205 -1.186361 -17.179094 2.339616 0.958626 4.046236 -2.297670 -2.020740 15.938253 0.066393 0.004314 -0.029011 -2.368253 -1.752335 18.395344 -2.456467 3.121639 4.595527 0.000000 0.000000 0.000000 -0.466072 -1.666793 14.345146 -0.190695 -4.450211 5.976600 -56.970707 -20.394986 3.034322 -139.085874 -83.993643 160.387117 0.000000 0.000000 0.000000 -4.292484 0.265736 13.691278 26.047107 12.989031 4.826582 56.712116 20.242789 3.718098 -163.224869 72.954931 -171.541403 0.000000 0.000000 0.000000 
-7.142688 63.192078 -20.904114 179.977807 2.903648 -179.975690 -0.157334 -5.606418 -12.170188 1.093252 5.976429 -71.744314 8.065549 -3.045089 111.650070 -4.772847 -14.685803 -11.682537 0.000000 0.000000 0.000000 0.084930 -2.440960 -12.439656 1.580027 -4.868041 -60.469208 -0.034370 2.320976 73.686949 4.091400 7.080879 -2.144093 0.000000 0.000000 0.000000 -2.887635 -1.348997 -16.888346 2.475366 0.966345 4.099692 -2.169045 -1.994417 15.881889 0.021558 0.011722 -0.016124 -2.312127 -1.788938 18.290698 -2.494244 2.951977 4.550198 0.000000 0.000000 0.000000 -0.430107 -1.670127 14.284116 -0.354926 -4.548103 5.844496 -57.750923 -20.164575 2.826260 -140.030284 -84.178462 161.134654 0.000000 0.000000 0.000000 -4.255058 0.251133 13.595089 25.801851 12.949158 4.827701 56.557668 20.291940 4.028949 -163.047885 73.100974 -171.195358 0.000000 0.000000 0.000000 
-7.173013 63.431686 -21.132391 179.972493 2.935966 -179.878072 -0.190528 -5.759801 -11.853000 0.347633 5.759481 -71.780712 8.010592 -3.000885 112.684447 -4.494477 -15.430415 -12.868599 0.000000 0.000000 0.000000 0.282763 -2.623617 -12.131844 1.583577 -5.124892 -60.569195 0.158903 2.374381 73.504734 4.105709 7.091106 -2.124863 0.000000 0.000000 0.000000 -2.770065 -1.547267 -16.667120 2.551704 1.096684 4.150584 -2.146184 -2.012406 15.793783 0.017834 -0.041077 -0.003406 -2.284822 -1.715689 18.193715 -2.555421 2.830103 4.416034 0.000000 0.000000 0.000000 -0.438801 -1.544585 14.193368 -0.520701 -4.561736 5.793753 -58.471501 -20.027040 2.806404 -140.453387 -84.316520 161.397343 0.000000 0.000000 0.000000 -4.251455 0.380860 13.507189 25.485830 12.907446 4.960065 56.318987 20.293704 4.088384 -162.991809 73.141907 -170.943994 0.000000 0.000000 0.000000 
-7.168363 63.668575 -21.504610 179.948929 3.084670 -179.996808 -0.166262 -5.647688 -11.304819 -0.344602 5.521362 -71.695881 7.886166 -2.967188 113.637846 -4.282912 -15.982416 -13.811784 0.000000 0.000000 0.000000 0.537189 -2.715715 -11.646885 1.567789 -5.275604 -60.645256 0.357900 2.588465 73.549485 4.075833 6.999866 -2.438088 0.000000 0.000000 0.000000 -2.620882 -1.487019 -16.208249 2.576843 1.026792 4.301457 -2.162752 -1.888063 15.710227 -0.008501 -0.007099 0.031408 -2.254719 -1.625553 18.030058 -2.632617 2.694512 4.286546 0.000000 0.000000 0.000000 -0.446451 -1.446839 14.045878 -0.589725 -4.649511 5.771029 -58.918926 -19.893932 2.815320 -141.395380 -84.412860 162.244833 0.000000 0.000000 0.000000 -4.257023 0.450515 13.359841 25.212100 12.836704 5.110951 56.172289 20.294719 4.222880 -162.589703 73.129169 -170.352417 0.000000 0.000000 0.000000 
-7.113188 63.852695 -21.954010 179.970321 3.323609 179.959475 -0.042827 -5.502065 -10.692741 -0.914982 5.403395 -71.589767 7.764959 -2.857710 114.394966 -4.238601 -16.423210 -14.358871 0.000000 0.000000 0.000000 0.787141 -2.692699 -11.104957 1.608099 -5.312663 -60.810376 0.537401 2.760367 73.759930 4.065221 6.904552 -2.981181 0.000000 0.000000 0.000000 -2.407341 -1.399290 -15.658487 2.573210 1.079256 4.386407 -2.178110 -1.802952 15.562832 0.028649 0.009296 -0.015468 -2.345379 -1.522704 17.924809 -2.687062 2.542953 4.104157 0.000000 0.000000 0.000000 -0.545587 -1.454428 13.894008 -0.659873 -4.653011 5.678859 -59.168426 -19.736665 3.061347 -143.392185 -84.480294 164.197556 0.000000 0.000000 0.000000 -4.377394 0.562210 13.247540 25.165000 12.799624 5.427968 56.114082 20.370363 4.304021 -162.282358 73.032966 -169.870493 0.000000 0.000000 0.000000 
-6.999430 63.973907 -22.397697 -179.925051 3.666133 -179.888905 0.170862 -5.456721 -10.114335 -1.322919 5.591208 -71.554633 7.632868 -2.762138 114.820384 -4.305872 -16.626803 -13.853094 0.000000 0.000000 0.000000 0.949915 -2.659907 -10.579455 1.372927 -5.067119 -61.024571 0.967865 3.200443 74.487270 4.797515 7.609856 -3.484793 0.000000 0.000000 0.000000 -2.087695 -1.325684 -15.199269 2.516526 1.111421 4.488920 -2.248745 -1.736956 15.366105 -0.015728 -0.016808 -0.010714 -2.381281 -1.428488 17.798363 -2.795688 2.429236 3.900135 0.000000 0.000000 0.000000 -0.588172 -1.258040 13.807741 -0.645140 -4.909156 5.689545 -59.196232 -19.618945 3.311570 -145.823637 -84.512731 166.657791 0.000000 0.000000 0.000000 -4.442985 0.748212 13.108654 25.244272 12.732311 5.644756 56.205616 20.342834 4.491323 -162.083627 73.051865 -169.540718 0.000000 0.000000 0.000000 
